<?xml version="1.0" standalone="no"?>
<!DOCTYPE svg PUBLIC "-//W3C//DTD SVG 20010904//EN"
 "http://www.w3.org/TR/2001/REC-SVG-20010904/DTD/svg10.dtd">
<svg version="1.0" xmlns="http://www.w3.org/2000/svg"
 width="1282.000000pt" height="1517.000000pt" viewBox="0 0 1282.000000 1517.000000"
 preserveAspectRatio="xMidYMid meet">
<metadata>
Created by potrace 1.16, written by Peter Selinger 2001-2019
</metadata>
<g transform="translate(0.000000,1517.000000) scale(0.100000,-0.100000)"
fill="#5d6778" stroke="none">
<path d="M277 15163 c-46 -3 -67 -8 -64 -16 6 -20 460 -290 1507 -894 700
-405 2276 -1314 2370 -1368 71 -41 977 -564 1550 -895 245 -141 596 -344 780
-450 184 -106 562 -324 840 -485 278 -160 773 -446 1100 -635 327 -189 939
-542 1360 -785 2201 -1272 2058 -1190 2161 -1233 125 -52 193 -66 319 -66 94
0 127 4 180 22 227 78 361 245 417 518 17 84 18 220 18 2629 0 2107 -2 2553
-14 2615 -47 260 -156 471 -343 666 -189 196 -425 324 -683 368 -81 14 -661
16 -5760 14 -3118 -1 -5701 -3 -5738 -5z m6259 -142 c23 -10 44 -23 48 -29 3
-5 -17 -17 -45 -26 -28 -10 -52 -16 -53 -14 -24 54 -44 57 -127 18 -83 -39
-89 -38 -89 9 l0 39 88 9 c127 15 133 14 178 -6z m4457 -27 c31 -16 277 -193
277 -199 0 -2 -15 1 -32 6 -57 16 -123 11 -151 -11 l-26 -21 -21 48 c-22 49
-47 83 -62 83 -5 0 -16 -16 -24 -35 -16 -39 -40 -39 -50 1 -7 27 11 111 28
131 14 17 23 16 61 -3z m-4493 -85 c16 -37 9 -52 -40 -88 -31 -22 -36 -30 -24
-35 32 -12 71 -5 132 24 96 45 133 38 71 -14 -17 -14 -48 -29 -70 -32 -38 -6
-39 -8 -39 -48 0 -22 8 -57 18 -76 22 -45 65 -49 95 -8 26 35 17 58 -25 58
l-32 0 48 49 c57 58 89 70 118 44 17 -15 19 -26 14 -76 -3 -32 -2 -66 3 -76 8
-14 5 -16 -22 -13 -27 3 -39 -4 -72 -37 -44 -46 -61 -49 -122 -21 -38 17 -47
28 -82 104 -22 47 -44 86 -49 86 -5 0 -12 -18 -16 -40 -7 -46 -65 -121 -65
-85 -1 11 8 40 19 64 24 52 25 74 5 91 -12 10 -18 10 -30 0 -13 -11 -20 -11
-40 0 -59 32 -8 100 74 100 56 0 82 13 63 32 -15 15 -16 40 0 56 15 15 51 -16
68 -59z m959 39 c45 -113 51 -137 40 -165 l-10 -28 -51 53 c-46 48 -50 56 -46
92 3 36 1 40 -20 40 -32 0 -37 -24 -18 -87 10 -30 16 -56 14 -57 -8 -6 -108
-36 -121 -36 -10 0 2 33 40 110 l55 110 52 0 c49 0 52 -2 65 -32z m3103 -337
c30 -13 55 -32 68 -53 26 -44 25 -56 -2 -31 -36 33 -84 53 -125 53 -21 0 -102
-9 -181 -21 -78 -12 -145 -19 -149 -15 -3 3 -1 17 5 30 16 35 61 41 143 20 79
-20 118 -13 134 24 12 27 32 26 107 -7z m-1744 -764 c13 -13 25 -43 28 -69 6
-45 7 -46 31 -35 21 9 27 8 39 -8 29 -39 13 -44 -57 -20 -23 9 -57 27 -75 40
l-33 25 15 -36 c9 -20 12 -40 7 -44 -14 -14 -144 -49 -159 -43 -28 10 -13 22
36 29 l50 7 0 73 c0 71 1 74 24 74 13 0 29 7 36 15 17 21 33 19 58 -8z m-221
-428 c15 -5 62 -32 103 -59 104 -67 163 -81 235 -54 18 7 19 6 5 -11 -27 -32
-76 -47 -120 -35 -43 12 -279 117 -295 132 -7 6 -3 14 9 24 24 17 27 17 63 3z
m2178 -202 c14 -38 23 -72 20 -75 -3 -3 -27 0 -53 8 -26 7 -73 16 -104 18 -32
2 -58 9 -58 14 0 6 25 37 55 69 34 35 55 67 55 81 1 22 2 21 30 -11 16 -18 40
-65 55 -104z m-2171 -68 c36 -21 56 -19 56 7 0 18 10 18 38 -2 24 -16 28 -44
12 -75 -9 -16 -7 -19 8 -19 24 0 38 16 47 53 8 32 20 35 35 6 14 -26 37 -10
42 29 3 25 4 25 21 8 28 -29 21 -60 -24 -100 -39 -36 -64 -49 -114 -62 -22 -5
-25 -3 -25 20 0 30 -25 46 -74 46 -29 0 -36 4 -36 20 0 11 -9 29 -21 41 -11
11 -18 27 -15 35 7 18 8 18 50 -7z m622 -681 c12 -12 39 -50 59 -83 21 -33 49
-73 64 -88 35 -39 113 -77 156 -77 43 0 45 -14 5 -35 -16 -8 -33 -22 -37 -30
-20 -35 -109 19 -155 93 -11 18 -22 32 -23 30 -5 -4 32 -178 44 -209 11 -31
56 -69 82 -69 71 0 54 -35 -49 -101 -78 -50 -96 -56 -107 -40 -3 5 17 22 45
37 54 29 63 53 33 86 -24 27 -41 22 -89 -22 -24 -22 -51 -40 -59 -40 -18 0
-17 3 25 65 15 22 37 59 48 81 l21 41 -73 71 -72 71 27 26 c49 46 59 167 18
212 -20 22 -21 24 -4 15 11 -5 30 -21 41 -34z"/>
<path d="M3270 11363 c-519 -55 -868 -150 -1271 -347 -349 -170 -576 -329
-887 -623 -362 -342 -704 -899 -868 -1416 -63 -197 -116 -411 -169 -685 -32
-169 -67 -590 -67 -822 1 -238 18 -489 46 -640 14 -80 35 -204 45 -277 21
-141 90 -391 186 -673 109 -319 316 -686 561 -995 103 -129 343 -372 464 -469
108 -86 316 -225 445 -299 138 -78 424 -210 573 -264 199 -72 510 -147 717
-172 99 -13 232 -29 295 -37 349 -43 923 13 1327 130 496 144 951 404 1292
739 178 176 273 290 408 492 59 87 233 424 274 528 11 28 64 206 117 396 97
345 97 346 97 461 0 98 -3 120 -21 150 -23 41 -71 76 -123 90 -48 13 -1103 13
-1195 0 -123 -18 -169 -68 -220 -237 -46 -154 -172 -488 -208 -553 -97 -173
-275 -394 -406 -503 -111 -91 -154 -119 -304 -193 -118 -58 -150 -69 -278 -95
-248 -50 -376 -61 -584 -50 -220 13 -206 10 -446 82 -255 76 -295 92 -431 176
-238 146 -437 342 -578 571 -168 273 -295 594 -352 897 -58 307 -70 421 -75
736 -4 227 -2 288 10 343 9 37 16 95 16 129 0 101 56 410 96 532 58 175 149
424 182 497 69 152 184 325 310 465 167 187 458 384 692 468 88 31 329 88 450
105 128 18 405 16 524 -5 205 -35 516 -164 716 -296 135 -89 304 -261 402
-409 79 -121 137 -228 158 -295 40 -127 117 -219 202 -242 120 -31 338 -44
676 -39 397 6 486 12 580 38 105 30 142 82 142 201 0 85 -89 398 -172 607
-249 626 -808 1200 -1480 1519 -323 154 -696 246 -1138 281 -213 17 -588 18
-730 3z"/>
<path d="M12095 6839 c-82 -12 -173 -42 -280 -93 -49 -24 -513 -287 -1030
-586 -1103 -637 -1278 -738 -2775 -1602 -624 -360 -1180 -681 -1235 -713 -55
-32 -217 -125 -360 -208 -143 -82 -343 -198 -445 -257 -179 -103 -313 -181
-1300 -750 -469 -271 -1321 -763 -2170 -1253 -267 -154 -618 -356 -780 -450
-777 -448 -1437 -836 -1490 -877 -14 -10 -21 -22 -17 -27 5 -4 2601 -8 5770
-8 5578 0 5765 1 5842 19 236 54 434 163 608 334 186 182 295 375 355 626 l27
111 0 2560 0 2560 -22 100 c-64 288 -244 472 -504 514 -73 12 -109 12 -194 0z
m-1510 -3278 c-11 -49 -78 -132 -140 -177 -69 -49 -112 -62 -144 -45 -23 13
-51 60 -51 86 0 14 4 13 29 -4 31 -22 90 -28 120 -12 10 6 52 51 95 101 76 88
104 104 91 51z m-115 -359 c0 -24 -25 -47 -74 -67 -20 -9 -36 -19 -34 -23 26
-52 33 -62 42 -59 6 2 21 22 34 45 26 46 52 65 83 60 18 -3 16 -8 -20 -57 -47
-62 -49 -76 -20 -133 l21 -41 -30 21 c-16 12 -46 42 -66 67 -40 49 -78 65
-108 46 -24 -15 -38 -6 -38 23 0 31 28 55 118 98 91 43 92 43 92 20z m420 -53
c28 -17 49 -36 47 -43 -4 -12 -49 -13 -84 -1 -20 6 -23 4 -23 -19 0 -20 8 -30
38 -43 28 -14 38 -25 40 -46 3 -25 1 -27 -32 -27 -51 0 -66 21 -66 89 0 32 -3
73 -6 90 -6 27 -4 31 15 31 11 0 43 -14 71 -31z m-3901 -71 c7 -11 21 -39 31
-62 l17 -42 -136 1 c-130 0 -136 1 -133 20 2 11 6 35 9 53 4 28 8 32 27 26 11
-3 35 -15 52 -25 45 -27 53 -24 66 25 10 40 14 43 33 34 12 -5 27 -19 34 -30z
m2661 -118 c49 -26 44 -66 -16 -147 -31 -41 -49 -35 -77 26 -15 32 -32 50 -54
60 -18 8 -33 18 -33 23 0 14 74 9 97 -7 23 -16 35 -8 47 33 8 25 10 26 36 12z
m-2430 -255 c43 -32 95 -49 125 -41 l24 6 -26 -57 c-14 -32 -37 -73 -50 -91
-13 -17 -22 -36 -18 -41 3 -5 41 -13 85 -17 44 -3 80 -9 80 -13 0 -3 -16 -28
-36 -54 -36 -50 -86 -87 -116 -87 -22 0 -22 4 -2 34 9 14 11 27 6 30 -6 3 -59
-1 -118 -10 -155 -22 -237 -8 -292 49 -29 30 -68 104 -59 113 4 5 93 -11 118
-21 14 -5 14 -2 0 46 l-16 51 -90 -5 c-49 -3 -124 -2 -165 1 l-75 7 28 27 c20
18 44 29 75 33 45 5 107 20 138 32 9 3 12 0 9 -9 -3 -8 1 -21 10 -28 13 -11
32 -11 109 -1 106 15 138 7 129 -30 -6 -20 -4 -20 35 6 47 31 60 55 38 71 -16
11 -11 24 9 24 6 0 26 -11 45 -25z m1351 -256 c40 -32 49 -29 49 13 0 61 50
10 58 -59 6 -54 14 -63 60 -63 23 0 32 -5 32 -16 0 -15 -9 -16 -67 -10 -110
11 -189 58 -194 116 -6 68 -3 69 62 19z m-96 -289 c14 -5 46 -25 70 -44 l44
-33 -20 -22 c-34 -36 -129 -64 -129 -38 0 8 8 18 18 22 15 6 14 9 -9 29 -47
41 -61 81 -31 89 28 8 30 7 57 -3z"/>
</g>
</svg>
